<svg width="11" height="11" viewBox="0 0 11 11" fill="none" xmlns="http://www.w3.org/2000/svg">
<g clip-path="url(#clip0_6477_5627)">
<path d="M5.85499 0.12085C3.83326 0.12085 2.18848 1.79518 2.18848 3.85323C2.18848 5.00441 2.77071 6.40167 3.91905 8.0062C4.75941 9.18045 5.58751 10.0179 5.62236 10.053C5.68641 10.1175 5.77068 10.1498 5.85505 10.1498C5.93696 10.1498 6.01894 10.1193 6.08248 10.0581C6.11741 10.0245 6.9476 9.22092 7.78955 8.06288C8.93882 6.48212 9.52154 5.0658 9.52154 3.85321C9.5215 1.79518 7.87668 0.12085 5.85499 0.12085ZM5.85499 5.46455C4.86658 5.46455 4.06247 4.66042 4.06247 3.67204C4.06247 2.68365 4.8666 1.87953 5.85499 1.87953C6.84337 1.87953 7.6475 2.68365 7.6475 3.67204C7.6475 4.66042 6.84336 5.46455 5.85499 5.46455Z" fill="white"/>
</g>
<defs>
<clipPath id="clip0_6477_5627">
<rect width="10.029" height="10.029" fill="white" transform="translate(0.840576 0.12085)"/>
</clipPath>
</defs>
</svg>
