<svg width="43" height="43" viewBox="0 0 43 43" fill="none" xmlns="http://www.w3.org/2000/svg">
<g clip-path="url(#clip0_6477_5640)">
<path d="M33.4528 29.7944C32.9994 29.4689 32.3834 29.4888 31.9522 29.8436C26.7346 34.1318 19.004 33.8329 14.1351 28.9642C9.27286 24.1021 8.96067 16.3728 13.2557 11.1472C13.6102 10.7159 13.6303 10.1001 13.3048 9.64655C12.9792 9.19292 12.3895 9.01502 11.8673 9.21288C9.60452 10.0703 7.58376 11.3785 5.86132 13.1011C-0.799482 19.7613 -0.812459 30.565 5.86123 37.2383C12.521 43.8983 23.3252 43.9117 29.9984 37.2383C31.7208 35.5159 33.0289 33.4951 33.8865 31.2319C34.0844 30.7098 33.9065 30.12 33.4528 29.7944ZM28.2562 35.496C22.5899 41.1625 13.3423 41.2349 7.60372 35.4959C1.95499 29.8477 1.84764 20.599 7.60372 14.8435C8.02384 14.4233 8.46466 14.032 8.92494 13.6703C7.67838 16.7593 6.14328 24.4573 12.3928 30.7065C18.6346 36.9481 26.3255 35.4268 29.4298 34.1741C29.068 34.6347 28.6765 35.0757 28.2562 35.496Z" fill="white"/>
<path d="M14.901 18.4221C15.1685 18.5113 16.5802 18.8526 17.7835 20.0373C18.9683 21.2406 19.3096 22.6523 19.3987 22.9198C19.566 23.4235 20.0371 23.7634 20.5679 23.7634C21.0986 23.7634 21.5697 23.4235 21.7371 22.9198C21.8263 22.6523 22.1675 21.2406 23.3522 20.0373C24.5555 18.8525 25.9672 18.5113 26.2347 18.4221C26.7384 18.2548 27.0784 17.7837 27.0784 17.2529C27.0784 16.7222 26.7384 16.251 26.2347 16.0837C25.9672 15.9945 24.5555 15.6533 23.3522 14.4686C22.1674 13.2653 21.8262 11.8535 21.7371 11.586C21.5697 11.0824 21.0986 10.7424 20.5679 10.7424C20.0371 10.7424 19.566 11.0824 19.3987 11.586C19.3095 11.8535 18.9682 13.2653 17.7835 14.4686C16.5802 15.6533 15.1685 15.9945 14.901 16.0837C14.3973 16.251 14.0574 16.7222 14.0574 17.2529C14.0574 17.7837 14.3973 18.2548 14.901 18.4221ZM20.5679 14.9324C21.1811 15.8493 21.9715 16.6398 22.8883 17.2529C21.9712 17.8662 21.1811 18.6564 20.5678 19.5736C19.9546 18.6566 19.1643 17.8662 18.2474 17.253C19.1645 16.6397 19.9546 15.8495 20.5679 14.9324Z" fill="white"/>
<path d="M25.4583 7.86511C25.7258 7.9543 27.1375 8.29557 28.3408 9.48028C29.5256 10.6836 29.8668 12.0953 29.956 12.3628C30.1233 12.8665 30.5944 13.2064 31.1252 13.2064C31.6559 13.2064 32.127 12.8665 32.2943 12.3628C32.3835 12.0953 32.7248 10.6836 33.9095 9.48028C35.1128 8.29549 36.5245 7.9543 36.792 7.86511C37.2957 7.6978 37.6356 7.22667 37.6356 6.69592C37.6356 6.16516 37.2957 5.69404 36.792 5.52673C36.5245 5.43753 35.1128 5.09626 33.9095 3.91155C32.7247 2.70828 32.3835 1.29654 32.2943 1.02903C32.127 0.52538 31.6559 0.185425 31.1252 0.185425C30.5946 0.185425 30.1234 0.52538 29.956 1.02903C29.8669 1.29654 29.5257 2.70828 28.3409 3.91155C27.1376 5.09634 25.7259 5.43753 25.4584 5.52673C24.9547 5.69404 24.6147 6.16516 24.6147 6.69592C24.6147 7.22667 24.9546 7.6978 25.4583 7.86511ZM31.1252 4.37528C31.7385 5.29223 32.5289 6.0827 33.4457 6.69583C32.5286 7.30913 31.7385 8.09935 31.1252 9.01647C30.512 8.09952 29.7216 7.30913 28.8048 6.69592C29.7218 6.0827 30.5119 5.2924 31.1252 4.37528Z" fill="white"/>
<path d="M42.0705 20.0427C41.8029 19.9535 40.3912 19.6123 39.1879 18.4275C38.0031 17.2243 37.6619 15.8125 37.5728 15.545C37.4054 15.0414 36.9343 14.7014 36.4036 14.7014C35.8728 14.7014 35.4017 15.0414 35.2344 15.545C35.1452 15.8125 34.804 17.2243 33.6192 18.4275C32.4159 19.6123 31.0042 19.9535 30.7367 20.0427C30.233 20.21 29.8931 20.6812 29.8931 21.2119C29.8931 21.7427 30.233 22.2138 30.7367 22.3811C31.0042 22.4703 32.4159 22.8116 33.6192 23.9963C34.804 25.1995 35.1452 26.6113 35.2344 26.8788C35.4017 27.3824 35.8728 27.7224 36.4036 27.7224C36.9343 27.7224 37.4054 27.3824 37.5728 26.8788C37.662 26.6113 38.0032 25.1995 39.1879 23.9963C40.3912 22.8115 41.8029 22.4703 42.0705 22.3811C42.5741 22.2138 42.9141 21.7427 42.9141 21.2119C42.9141 20.6812 42.5741 20.21 42.0705 20.0427ZM36.4035 23.5325C35.7903 22.6155 35 21.8251 34.0831 21.2119C35.0002 20.5986 35.7903 19.8084 36.4036 18.8913C37.0168 19.8082 37.8073 20.5987 38.724 21.2118C37.8069 21.8251 37.0168 22.6153 36.4035 23.5325Z" fill="white"/>
</g>
<defs>
<clipPath id="clip0_6477_5640">
<rect width="42.053" height="42.053" fill="white" transform="translate(0.86084 0.185425)"/>
</clipPath>
</defs>
</svg>
