<svg width="42" height="43" viewBox="0 0 42 43" fill="none" xmlns="http://www.w3.org/2000/svg">
<g clip-path="url(#clip0_6477_5592)">
<path d="M11.1985 9.54345L8.73656 7.08147C8.05752 6.40155 6.95363 6.40155 6.27459 7.08147C5.59467 7.76139 5.59467 8.86353 6.27459 9.54345L8.73656 12.0054C9.07609 12.3458 9.52182 12.5156 9.96755 12.5156C10.4133 12.5156 10.859 12.3458 11.1985 12.0054C11.8785 11.3255 11.8785 10.2234 11.1985 9.54345Z" fill="white"/>
<path d="M5.37797 20.1139H1.89568C0.934573 20.1139 0.154541 20.8939 0.154541 21.855C0.154541 22.8161 0.934573 23.5962 1.89568 23.5962H5.37797C6.33908 23.5962 7.11911 22.8161 7.11911 21.855C7.11911 20.8939 6.33908 20.1139 5.37797 20.1139Z" fill="white"/>
<path d="M11.1985 31.7048C10.5195 31.0248 9.41561 31.0248 8.73656 31.7048L6.27459 34.1667C5.59467 34.8467 5.59467 35.9488 6.27459 36.6287C6.61411 36.9691 7.05984 37.1389 7.50557 37.1389C7.95131 37.1389 8.39704 36.9691 8.73656 36.6287L11.1985 34.1667C11.8785 33.4868 11.8785 32.3847 11.1985 31.7048Z" fill="white"/>
<path d="M21.0483 35.7842C20.0872 35.7842 19.3071 36.5642 19.3071 37.5253V41.0076C19.3071 41.9687 20.0872 42.7488 21.0483 42.7488C22.0094 42.7488 22.7894 41.9687 22.7894 41.0076V37.5253C22.7894 36.5642 22.0094 35.7842 21.0483 35.7842Z" fill="white"/>
<path d="M35.8218 34.1667L33.3599 31.7048C32.6808 31.0248 31.5769 31.0248 30.8979 31.7048C30.218 32.3847 30.218 33.4868 30.8979 34.1667L33.3599 36.6287C33.6994 36.9691 34.1451 37.1389 34.5908 37.1389C35.0366 37.1389 35.4823 36.9691 35.8218 36.6287C36.5017 35.9488 36.5017 34.8467 35.8218 34.1667Z" fill="white"/>
<path d="M40.201 20.1139H36.7187C35.7576 20.1139 34.9775 20.8939 34.9775 21.855C34.9775 22.8161 35.7576 23.5962 36.7187 23.5962H40.201C41.1621 23.5962 41.9421 22.8161 41.9421 21.855C41.9421 20.8939 41.1621 20.1139 40.201 20.1139Z" fill="white"/>
<path d="M35.8218 7.08147C35.1428 6.40155 34.0389 6.40155 33.3599 7.08147L30.8979 9.54345C30.218 10.2234 30.218 11.3255 30.8979 12.0054C31.2374 12.3458 31.6831 12.5156 32.1289 12.5156C32.5746 12.5156 33.0203 12.3458 33.3599 12.0054L35.8218 9.54345C36.5017 8.86353 36.5017 7.76139 35.8218 7.08147Z" fill="white"/>
<path d="M21.0483 0.961365C20.0872 0.961365 19.3071 1.7414 19.3071 2.70251V6.18479C19.3071 7.14591 20.0872 7.92594 21.0483 7.92594C22.0094 7.92594 22.7894 7.14591 22.7894 6.18479V2.70251C22.7894 1.7414 22.0094 0.961365 21.0483 0.961365Z" fill="white"/>
<path d="M21.0481 10.5377C14.8079 10.5377 9.73071 15.6148 9.73071 21.8551C9.73071 28.0953 14.8079 33.1725 21.0481 33.1725C27.2884 33.1725 32.3656 28.0953 32.3656 21.8551C32.3656 15.6148 27.2884 10.5377 21.0481 10.5377ZM21.0481 29.6902C16.7284 29.6902 13.213 26.1749 13.213 21.8551C13.213 17.5353 16.7284 14.0199 21.0481 14.0199C25.3679 14.0199 28.8833 17.5353 28.8833 21.8551C28.8833 26.1749 25.3679 29.6902 21.0481 29.6902Z" fill="white"/>
</g>
<defs>
<clipPath id="clip0_6477_5592">
<rect width="41.7874" height="41.7874" fill="white" transform="translate(0.154541 0.961304)"/>
</clipPath>
</defs>
</svg>
